<svg xmlns="http://www.w3.org/2000/svg" fill="none" viewBox="0 0 16 16" class="jimu-icon jimu-icon-component svg-component css-1vuz6dz" width="20" height="20"><path fill="currentColor" fill-rule="evenodd" d="M2 2.707v1.45a.5.5 0 0 1-1 0V1h3.05a.5.5 0 1 1 0 1H2.707L8 7.29 13.293 2H11.95a.5.5 0 1 1 0-1H15v3.156a.5.5 0 0 1-1 0v-1.45L8.707 7.999l5.29 5.289v-1.55a.5.5 0 1 1 1 0V15H11.84a.5.5 0 1 1 0-1h1.456L8 8.705 2.704 14h1.453a.5.5 0 1 1 0 1H1v-3.263a.5.5 0 0 1 1 0v1.553l5.293-5.292L2 2.707Z" clip-rule="evenodd"></path></svg>